<svg xmlns="http://www.w3.org/2000/svg" viewBox="0 0 1440 320">
    <linearGradient id="grad1" x1="0%" y1="100%" x2="0%" y2="0%">
        <stop offset="0%" style="stop-color:#00ffea;stop-opacity:1" />
        <stop offset="50%" style="stop-color:#14ffec;stop-opacity:1" />
        <stop offset="100%" style="stop-color:#ffffff;stop-opacity:1" />
    </linearGradient>

    <path fill="url(#grad1)" fill-opacity="1"
        d="M0,192L60,165.3C120,139,240,85,360,58.7C480,32,600,32,720,53.3C840,75,960,117,1080,144C1200,171,1320,181,1380,186.7L1440,192L1440,320L1380,320C1320,320,1200,320,1080,320C960,320,840,320,720,320C600,320,480,320,360,320C240,320,120,320,60,320L0,320Z">
    </path>
</svg>